{"title":"Laura.(UnCut.FixB&amp;W).1944.BR.720p.x264.AC3.[FrOnkY]","uid":9820682,"size":5482683538,"categoryP":"video","categoryS":"hd___movies","magnet":"?xt=urn:btih:49245224e592bc77964ff60d64b7c8f04e9f2ff6&amp;dn=Laura.%28UnCut.FixB%26amp%3BW%29.1944.BR.720p.x264.AC3.%5BFrOnkY%5D&amp;tr=udp%3A%2F%2Ftracker.openbittorrent.com%3A80&amp;tr=udp%3A%2F%2Fopen.demonii.com%3A1337&amp;tr=udp%3A%2F%2Ftracker.coppersurfer.tk%3A6969&amp;tr=udp%3A%2F%2Fexodus.desync.com%3A6969","seeders":1,"leechers":0,"uploader":"HDmEntEs","files":-1,"time":1395694094,"description":"TOP Film-Noir\nThe story of a love that became the most fearful thing that ever happened to a woman! \n\n\nLaura.(UnCut.FixB&amp;W).1944.BR.720p.x264.AC3.[FrOnkY].mkv\n\nFormat                                   : Matroska\nFormat version                           : Version 4 / Version 2\nFile size                                : 5.11 GiB\nDuration                                 : 1h 28mn\nOverall bit rate                         : 8 292 Kbps\nWriting application                      : mkvmerge v6.0.0 ('Coming Up For Air') built on Jan 20 2013 09:52:00\nWriting library                          : libebml v1.3.0 + libmatroska v1.4.0\nAttachment                               : Yes / Yes / Yes\n\nVideo\nID                                       : 1\nFormat                                   : AVC\nFormat/Info                              : Advanced Video Codec\nFormat profile                           : &lt;a class=&quot;__cf_email__&quot; href=&quot;/cdn-cgi/l/email-protection&quot; data-cfemail=&quot;cd85a4aaa58d81f9e3fc&quot;&gt;[email&amp;#160;protected]&lt;/a&gt;&lt;script cf-hash='f9e31' type=&quot;text/javascript&quot;&gt;\n/* &lt;![CDATA[ */!function(){try{var t=&quot;currentScript&quot;in document?document.currentScript:function(){for(var t=document.getElementsByTagName(&quot;script&quot;),e=t.length;e--;)if(t[e].getAttribute(&quot;cf-hash&quot;))return t[e]}();if(t&amp;&amp;t.previousSibling){var e,r,n,i,c=t.previousSibling,a=c.getAttribute(&quot;data-cfemail&quot;);if(a){for(e=&quot;&quot;,r=parseInt(a.substr(0,2),16),n=2;a.length-n;n+=2)i=parseInt(a.substr(n,2),16)^r,e+=String.fromCharCode(i);e=document.createTextNode(e),c.parentNode.replaceChild(e,c)}}}catch(u){}}();/* ]]&gt; */&lt;/script&gt;\nFormat settings, CABAC                   : Yes\nFormat settings, ReFrames                : 12 frames\nCodec ID                                 : V_MPEG4/ISO/AVC\nDuration                                 : 1h 28mn\nBit rate                                 : 7 777 Kbps\nWidth                                    : 960 pixels\nHeight                                   : 720 pixels\nDisplay aspect ratio                     : 4:3\nFrame rate mode                          : Constant\nFrame rate                               : 23.976 fps\nColor space                              : YUV\nChroma subsampling                       : 4:2:0\nBit depth                                : 8 bits\nScan type                                : Progressive\nBits/(Pixel*Frame)                       : 0.469\nStream size                              : 4.69 GiB (92%)\nWriting library                          : x264 core 129 r2245 bc13772\nLanguage                                 : English\nDefault                                  : Yes\nForced                                   : No\n\nAudio #1\nID                                       : 2\nFormat                                   : AC-3\nFormat/Info                              : Audio Coding 3\nMode extension                           : CM (complete main)\nFormat settings, Endianness              : Big\nCodec ID                                 : A_AC3\nDuration                                 : 1h 28mn\nBit rate mode                            : Constant\nBit rate                                 : 192 Kbps\nChannel(s)                               : 2 channels\nChannel positions                        : Front: L R\nSampling rate                            : 48.0 KHz\nBit depth                                : 16 bits\nStream size                              : 121 MiB (2%)\nLanguage                                 : Spanish\nDefault                                  : Yes\nForced                                   : No\n\nAudio #2\nID                                       : 3\nFormat                                   : AC-3\nFormat/Info                              : Audio Coding 3\nMode extension                           : CM (complete main)\nFormat settings, Endianness              : Big\nCodec ID                                 : A_AC3\nDuration                                 : 1h 28mn\nBit rate mode                            : Constant\nBit rate                                 : 320 Kbps\nChannel(s)                               : 1 channel\nChannel positions                        : Front: C\nSampling rate                            : 48.0 KHz\nBit depth                                : 16 bits\nStream size                              : 202 MiB (4%)\nLanguage                                 : English\nDefault                                  : No\nForced                                   : No\n\nText #1\nID                                       : 4\nFormat                                   : UTF-8\nCodec ID                                 : S_TEXT/UTF8\nCodec ID/Info                            : UTF-8 Plain Text\nTitle                                    : for\nLanguage                                 : Spanish\nDefault                                  : Yes\nForced                                   : No\n\nText #2\nID                                       : 5\nFormat                                   : UTF-8\nCodec ID                                 : S_TEXT/UTF8\nCodec ID/Info                            : UTF-8 Plain Text\nLanguage                                 : Spanish\nDefault                                  : No\nForced                                   : No\n\nText #3\nID                                       : 6\nFormat                                   : UTF-8\nCodec ID                                 : S_TEXT/UTF8\nCodec ID/Info                            : UTF-8 Plain Text\nLanguage                                 : English\nDefault                                  : No\nForced                                   : No\n\nText #4\nID                                       : 7\nFormat                                   : UTF-8\nCodec ID                                 : S_TEXT/UTF8\nCodec ID/Info                            : UTF-8 Plain Text\nLanguage                                 : French\nDefault                                  : No\nForced                                   : No\n\nMenu\n00:00:00.000                             : en:Chapter 01\n00:01:06.900                             : en:Chapter 02\n00:06:43.236                             : en:Chapter 03\n00:11:08.084                             : en:Chapter 04\n00:15:17.542                             : en:Chapter 05\n00:21:33.918                             : en:Chapter 06\n00:25:01.333                             : en:Chapter 07\n00:28:00.304                             : en:Chapter 08\n00:30:33.832                             : en:Chapter 09\n00:33:40.018                             : en:Chapter 10\n00:35:34.549                             : en:Chapter 11\n00:41:23.898                             : en:Chapter 12\n00:47:39.857                             : en:Chapter 13\n00:53:48.809                             : en:Chapter 14\n01:01:02.284                             : en:Chapter 15\n01:06:26.065                             : en:Chapter 16\n01:09:41.511                             : en:Chapter 17\n01:11:59.982                             : en:Chapter 18\n01:15:47.376                             : en:Chapter 19\n01:23:52.569                             : en:Chapter 20\n\n\nSCREENS\n &lt;a href=&quot;\nhttp://box.jisko.net/i/e00250eb.png&quot; rel=&quot;nofollow&quot; target=&quot;_NEW&quot;&gt;\nhttp://box.jisko.net/i/e00250eb.png&lt;/a&gt;\n &lt;a href=&quot;\nhttp://box.jisko.net/i/883dc952.png&quot; rel=&quot;nofollow&quot; target=&quot;_NEW&quot;&gt;\nhttp://box.jisko.net/i/883dc952.png&lt;/a&gt;\n &lt;a href=&quot;\nhttp://box.jisko.net/i/9404b0be.png&quot; rel=&quot;nofollow&quot; target=&quot;_NEW&quot;&gt;\nhttp://box.jisko.net/i/9404b0be.png&lt;/a&gt;\n\nBluRay - FixB&amp;W\n &lt;a href=&quot;\nhttp://box.jisko.net/i/cb835c9d.png&quot; rel=&quot;nofollow&quot; target=&quot;_NEW&quot;&gt;\nhttp://box.jisko.net/i/cb835c9d.png&lt;/a&gt; &lt;a href=&quot;\nhttp://box.jisko.net/i/f047e26d.png&quot; rel=&quot;nofollow&quot; target=&quot;_NEW&quot;&gt;\nhttp://box.jisko.net/i/f047e26d.png&lt;/a&gt;\n &lt;a href=&quot;\nhttp://box.jisko.net/i/d15aa578.png&quot; rel=&quot;nofollow&quot; target=&quot;_NEW&quot;&gt;\nhttp://box.jisko.net/i/d15aa578.png&lt;/a&gt; &lt;a href=&quot;\nhttp://box.jisko.net/i/7ad27277.png&quot; rel=&quot;nofollow&quot; target=&quot;_NEW&quot;&gt;\nhttp://box.jisko.net/i/7ad27277.png&lt;/a&gt;","torrent":{"xt":"urn:btih:49245224e592bc77964ff60d64b7c8f04e9f2ff6","amp;dn":"Laura.%28UnCut.FixB%26amp%3BW%29.1944.BR.720p.x264.AC3.%5BFrOnkY%5D","amp;tr":["udp%3A%2F%2Ftracker.openbittorrent.com%3A80","udp%3A%2F%2Fopen.demonii.com%3A1337","udp%3A%2F%2Ftracker.coppersurfer.tk%3A6969","udp%3A%2F%2Fexodus.desync.com%3A6969"],"infoHash":"49245224e592bc77964ff60d64b7c8f04e9f2ff6","infoHashBuffer":{"type":"Buffer","data":[73,36,82,36,229,146,188,119,150,79,246,13,100,183,200,240,78,159,47,246]},"announce":[],"urlList":[]}}